<svg width="302" height="251" viewBox="0 0 302 251" fill="none" xmlns="http://www.w3.org/2000/svg">
<mask id="path-1-outside-1_8_15" maskUnits="userSpaceOnUse" x="0" y="0.399902" width="302" height="250" fill="black">
<rect fill="white" y="0.399902" width="302" height="250"/>
<path d="M125 1.3999L78.6 179L65.8 119C84.4667 119 99.9333 124.867 112.2 136.6C124.467 148.333 130.6 164.067 130.6 183.8C130.6 203.533 124.467 219.533 112.2 231.8C99.9333 243.533 84.7333 249.4 66.6 249.4C47.4 249.4 31.6667 243.267 19.4 231C7.13333 218.733 1 203 1 183.8C1 177.4 1.26667 171.533 1.8 166.2C2.86667 160.333 4.73333 153.4 7.4 145.4C10.0667 137.4 13.8 127.267 18.6 115L61 1.3999H125ZM294.6 1.3999L248.2 179L235.4 119C254.067 119 269.533 124.867 281.8 136.6C294.067 148.333 300.2 164.067 300.2 183.8C300.2 203.533 294.067 219.533 281.8 231.8C269.533 243.533 254.333 249.4 236.2 249.4C217 249.4 201.267 243.267 189 231C176.733 218.733 170.6 203 170.6 183.8C170.6 177.4 170.867 171.533 171.4 166.2C172.467 160.333 174.333 153.4 177 145.4C179.667 137.4 183.4 127.267 188.2 115L230.6 1.3999H294.6Z"/>
</mask>
<path d="M125 1.3999L125.968 1.65268L126.295 0.399902H125V1.3999ZM78.6 179L77.622 179.209L79.5675 179.253L78.6 179ZM65.8 119V118H64.5642L64.822 119.209L65.8 119ZM112.2 231.8L112.891 232.523L112.899 232.515L112.907 232.507L112.2 231.8ZM19.4 231L18.6929 231.707L19.4 231ZM1.8 166.2L0.816129 166.021L0.808953 166.061L0.804961 166.1L1.8 166.2ZM7.4 145.4L6.45131 145.084L7.4 145.4ZM18.6 115L19.5312 115.364L19.5341 115.357L19.5369 115.35L18.6 115ZM61 1.3999V0.399902H60.3059L60.0631 1.05023L61 1.3999ZM294.6 1.3999L295.568 1.65268L295.895 0.399902H294.6V1.3999ZM248.2 179L247.222 179.209L249.168 179.253L248.2 179ZM235.4 119V118H234.164L234.422 119.209L235.4 119ZM281.8 231.8L282.491 232.523L282.499 232.515L282.507 232.507L281.8 231.8ZM171.4 166.2L170.416 166.021L170.409 166.061L170.405 166.1L171.4 166.2ZM188.2 115L189.131 115.364L189.134 115.357L189.137 115.35L188.2 115ZM230.6 1.3999V0.399902H229.906L229.663 1.05023L230.6 1.3999ZM124.032 1.14713L77.6325 178.747L79.5675 179.253L125.968 1.65268L124.032 1.14713ZM79.578 178.791L66.778 118.791L64.822 119.209L77.622 179.209L79.578 178.791ZM65.8 120C84.2372 120 99.4475 125.786 111.509 137.323L112.891 135.877C100.419 123.947 84.6962 118 65.8 118V120ZM111.509 137.323C123.546 148.836 129.6 164.291 129.6 183.8H131.6C131.6 163.842 125.387 147.83 112.891 135.877L111.509 137.323ZM129.6 183.8C129.6 203.308 123.546 219.04 111.493 231.093L112.907 232.507C125.388 220.027 131.6 203.759 131.6 183.8H129.6ZM111.509 231.077C99.4417 242.62 84.4951 248.4 66.6 248.4V250.4C84.9715 250.4 100.425 244.447 112.891 232.523L111.509 231.077ZM66.6 248.4C47.6342 248.4 32.1654 242.351 20.1071 230.293L18.6929 231.707C31.168 244.182 47.1658 250.4 66.6 250.4V248.4ZM20.1071 230.293C8.04885 218.235 2 202.766 2 183.8H0C0 203.234 6.21781 219.232 18.6929 231.707L20.1071 230.293ZM2 183.8C2 177.427 2.26557 171.594 2.79504 166.299L0.804961 166.1C0.267762 171.472 0 177.373 0 183.8H2ZM2.78387 166.379C3.83941 160.573 5.69138 153.688 8.34868 145.716L6.45131 145.084C3.77528 153.112 1.89393 160.093 0.816129 166.021L2.78387 166.379ZM8.34868 145.716C11.0078 137.739 14.7344 127.623 19.5312 115.364L17.6688 114.636C12.8656 126.91 9.12549 137.061 6.45131 145.084L8.34868 145.716ZM19.5369 115.35L61.9369 1.74958L60.0631 1.05023L17.6631 114.65L19.5369 115.35ZM61 2.3999H125V0.399902H61V2.3999ZM293.632 1.14713L247.232 178.747L249.168 179.253L295.568 1.65268L293.632 1.14713ZM249.178 178.791L236.378 118.791L234.422 119.209L247.222 179.209L249.178 178.791ZM235.4 120C253.837 120 269.048 125.786 281.109 137.323L282.491 135.877C270.019 123.947 254.296 118 235.4 118V120ZM281.109 137.323C293.146 148.836 299.2 164.291 299.2 183.8H301.2C301.2 163.842 294.987 147.83 282.491 135.877L281.109 137.323ZM299.2 183.8C299.2 203.308 293.146 219.04 281.093 231.093L282.507 232.507C294.988 220.027 301.2 203.759 301.2 183.8H299.2ZM281.109 231.077C269.042 242.62 254.095 248.4 236.2 248.4V250.4C254.572 250.4 270.025 244.447 282.491 232.523L281.109 231.077ZM236.2 248.4C217.234 248.4 201.765 242.351 189.707 230.293L188.293 231.707C200.768 244.182 216.766 250.4 236.2 250.4V248.4ZM189.707 230.293C177.649 218.235 171.6 202.766 171.6 183.8H169.6C169.6 203.234 175.818 219.232 188.293 231.707L189.707 230.293ZM171.6 183.8C171.6 177.427 171.866 171.594 172.395 166.299L170.405 166.1C169.868 171.472 169.6 177.373 169.6 183.8H171.6ZM172.384 166.379C173.439 160.573 175.291 153.688 177.949 145.716L176.051 145.084C173.375 153.112 171.494 160.093 170.416 166.021L172.384 166.379ZM177.949 145.716C180.608 137.739 184.334 127.623 189.131 115.364L187.269 114.636C182.466 126.91 178.726 137.061 176.051 145.084L177.949 145.716ZM189.137 115.35L231.537 1.74958L229.663 1.05023L187.263 114.65L189.137 115.35ZM230.6 2.3999H294.6V0.399902H230.6V2.3999Z" fill="white" mask="url(#path-1-outside-1_8_15)"/>
</svg>
